<svg xmlns="http://www.w3.org/2000/svg">

    <symbol id="hand">
        <path d="M49.9372 8.44973C43.9103 8.44973 36.1614 12.7547 36.4484 21.6515C36.4484 21.6515 24.6816 17.9206 21.2377 30.2614C21.2377 30.2614 19.2287 25.9565 16.6457 23.9475C13.7758 21.9385 10.3318 16.7726 10.0448 14.1896C10.3318 12.7547 10.6188 12.7547 11.1928 12.4677C11.4798 12.4677 11.4798 14.7636 14.0628 15.0506C16.3587 14.7636 16.9327 14.1896 17.7937 13.0417L20.3767 10.1717C20.3767 10.1717 22.9596 6.72776 20.6637 5.00578C18.6547 2.99681 14.9238 -0.734128 10.3318 0.126858C7.74888 0.700849 5.73991 2.70982 5.73991 2.70982L2.29596 5.86677C2.29596 5.86677 0 8.16273 0 12.7547C0 16.7726 0.860987 23.3735 0.860987 23.3735C0.860987 23.3735 1.72197 28.5394 2.00897 30.2614C2.29596 31.9834 4.59193 42.0282 10.0448 47.4811C13.4888 51.4991 15.4978 53.221 17.2197 53.508C20.0897 53.508 21.5247 51.7861 23.8206 51.7861C26.1166 51.7861 28.4126 53.508 33.2915 53.508C38.1704 53.508 49.0762 50.6381 53.6682 36.5753C57.9731 34.8533 64 31.6964 64 22.2255C64 12.7547 55.6771 8.44973 49.9372 8.44973ZM51.9462 34.8533C48.7892 47.4811 38.7444 50.9251 33.8655 51.4991C29.2735 51.4991 26.6906 49.7771 23.2466 49.7771C21.2377 49.7771 18.3677 51.4991 17.5067 51.4991C16.6457 51.4991 14.3498 49.4901 11.4798 46.3331C8.60987 43.1762 7.46188 40.3062 6.3139 38.0103C5.16592 35.7143 3.15695 26.5304 3.15695 26.5304C3.15695 26.5304 2.29596 17.3466 2.29596 13.3287C2.29596 9.59771 4.01794 7.30175 4.01794 7.30175C4.01794 7.30175 6.3139 5.29278 8.60987 3.28381C11.1928 1.27484 14.3498 2.70982 14.3498 2.70982C14.3498 2.70982 17.5067 4.71879 18.6547 5.86677C20.0897 7.01475 18.6547 8.16273 18.6547 8.16273C18.6547 8.16273 15.4978 12.1807 14.3498 12.4677C12.9148 12.7547 12.6278 9.31072 12.6278 9.31072C11.1928 9.88471 8.89686 10.4587 8.03587 13.0417C7.17489 16.1986 11.7668 22.7995 15.2108 25.9565C18.3677 29.1134 20.3767 34.2793 20.3767 34.2793L22.9596 33.4183C22.9596 33.4183 22.6726 27.3914 27.8386 24.2345C33.5785 21.0775 38.7444 25.3825 38.7444 25.3825C37.0224 11.0327 49.6502 10.7457 50.5112 10.7457C51.3722 10.7457 61.417 11.6067 62.278 21.6515C61.704 33.1313 51.9462 34.8533 51.9462 34.8533Z"/>
    </symbol>

    <symbol id="leaf">
        <path d="M6.68662 24.4709C6.68662 24.9568 6.92954 25.4426 6.92954 25.9284C6.92954 27.8718 7.17246 31.0297 7.17246 31.0297H8.38704C8.38704 31.0297 8.38704 25.9284 7.65829 23.2563C6.92954 20.3413 6.68662 14.9971 8.38704 11.1104L7.17246 10.6246C7.17246 10.6246 5.71495 13.5396 5.71495 18.1551C5.71495 21.0701 5.95787 22.2847 6.20078 23.4992C5.22911 22.7705 2.55701 20.3413 2.79993 15.24C3.28577 9.41001 8.38704 4.06581 8.38704 4.06581C8.38704 4.06581 17.375 12.5679 9.35872 22.0417L10.3304 22.7705C10.3304 22.7705 13.9742 18.6409 13.9742 14.0254C13.9742 9.41001 12.0308 5.52332 8.38704 2.36539C8.38704 2.36539 2.07118 8.43834 1.58534 15.7259C1.34243 22.5276 6.4437 24.9568 6.4437 24.9568L6.68662 24.4709Z"/>
        <path d="M19.3183 18.1551C10.3304 20.8272 10.8162 29.5722 11.0591 31.5156C7.9012 34.6735 6.4437 37.5885 6.4437 37.5885L7.41537 38.0743C16.6462 22.7705 30.9784 25.6855 30.9784 25.6855V24.4709C22.2334 23.4993 16.1604 26.9001 12.0308 30.301C11.7879 27.143 13.2454 19.6126 22.4763 18.8838C33.1647 18.6409 38.2659 24.9568 38.2659 24.9568C32.6788 33.9447 26.363 35.1593 22.4763 35.6452C18.3467 36.3739 13.2454 33.4589 13.2454 33.4589L12.7596 34.4306C12.7596 34.4306 17.1321 37.3456 22.7192 36.8597C34.8651 35.4022 39.4805 24.7138 39.4805 24.7138C38.2659 22.2847 29.278 15.7259 19.3183 18.1551Z"/>
    </symbol>

    <symbol id="measure">
        <path d="M36.8031 16.1551C36.8031 13.7259 34.8597 11.7825 32.4306 11.7825H31.4589H10.0821C10.0821 11.7825 4.25207 12.0254 1.57998 7.41001C1.82289 4.00916 4.49499 1.57998 7.89584 1.57998H17.6126C21.2563 1.57998 23.9284 4.49499 23.9284 7.89584V9.11043H25.143V8.13876C25.143 3.76624 21.7422 0.365387 17.3696 0.365387H8.13876C3.76624 0.365387 0.365387 3.76624 0.365387 8.13876V11.2967V11.7825V19.5559C0.365387 23.9284 3.76624 27.3293 8.13876 27.3293H9.83919V26.1147H7.89584C4.25207 26.1147 1.57998 23.1997 1.57998 19.7988V11.7825V11.2967V9.59627C2.30873 10.5679 4.73791 12.9971 9.83919 12.9971C17.1267 12.9971 31.216 12.9971 31.216 12.9971H32.4306C34.131 12.9971 35.3456 14.2117 35.3456 15.9121V17.3696V17.8555C35.3456 19.5559 34.131 20.7705 32.4306 20.7705H32.1876H16.8838C14.4546 20.7705 12.5113 22.7138 12.5113 25.143V31.7018C12.5113 34.131 14.4546 36.0743 16.8838 36.0743H32.4306C34.8597 36.0743 36.8031 34.131 36.8031 31.7018V25.143C36.8031 25.143 36.8031 19.313 36.8031 17.6126C36.8031 17.6126 36.8031 17.6126 36.8031 17.3696V16.1551ZM35.3456 32.1876C35.3456 33.8881 34.131 35.1027 32.4306 35.1027H16.6409C14.9405 35.1027 13.7259 33.8881 13.7259 32.1876V25.143C13.7259 23.4426 14.9405 22.228 16.6409 22.228H21.2563V26.3576H22.4709V22.228H28.058H30.2443V26.3576H31.4589V22.228H32.4306C33.6451 22.228 34.8597 21.7422 35.5885 21.0134V32.1876H35.3456Z"/>
    </symbol>

    <symbol id="person">
        <path d="M60.03 19.665C60.72 18.975 61.41 18.285 61.755 17.595C64.17 14.49 63.825 13.11 61.41 11.04C58.995 8.97 55.2 12.075 55.2 12.075C55.2 12.075 54.855 12.42 54.51 12.765C50.715 9.315 45.885 6.555 40.365 5.175C38.295 2.07 35.19 0 31.74 0C27.945 0 24.84 2.415 22.77 5.52C18.285 6.9 14.145 9.315 10.695 12.42C10.005 12.075 8.625 10.695 6.9 10.35C4.485 10.005 2.07 11.73 1.725 14.145C1.725 15.525 3.105 17.595 4.83 19.665C1.725 24.495 0 30.015 0 36.225C0 53.82 14.49 68.31 32.43 68.31C38.64 68.31 44.85 66.585 49.68 63.48L48.645 61.065C44.16 49.68 45.195 42.435 45.54 38.985C46.575 35.19 50.37 30.015 52.44 27.255C53.82 25.53 55.89 23.805 57.96 21.735C60.72 25.875 62.1 30.705 62.1 36.225C62.1 44.16 58.65 51.405 53.475 56.925L55.545 58.65C61.41 52.785 64.86 44.85 64.86 36.225C64.86 30.015 63.135 24.495 60.03 19.665ZM31.74 2.76C36.225 2.76 39.675 6.9 39.675 12.075C39.675 17.25 36.225 21.39 31.74 21.39C27.255 21.39 23.805 17.595 23.805 12.075C23.805 6.555 27.255 2.76 31.74 2.76ZM31.74 24.15C37.605 24.15 42.435 18.63 42.435 12.075C42.435 10.695 42.09 9.66 41.745 8.28C45.885 9.66 49.335 11.73 52.44 14.49C49.68 16.905 45.54 20.01 43.47 21.39C40.365 23.805 35.19 26.22 31.05 26.22C26.91 26.22 24.84 24.495 21.735 23.115C18.975 21.735 14.49 16.56 12.42 14.49C15.18 12.075 18.285 10.35 21.39 8.97C21.39 10.005 21.045 11.04 21.045 12.075C21.045 18.975 25.875 24.15 31.74 24.15ZM2.76 36.225C2.76 31.05 4.14 26.22 6.555 21.735C7.245 22.425 7.59 22.77 7.59 22.77C7.59 22.77 16.215 32.775 17.94 35.19C19.665 37.605 17.595 39.33 16.215 45.54C15.18 50.37 15.18 56.925 15.18 60.03C7.59 54.51 2.76 45.885 2.76 36.225ZM56.235 19.665C54.855 21.045 50.025 25.185 45.885 31.74C41.745 38.295 42.435 43.47 42.78 47.265C43.125 51.06 44.16 54.51 44.505 55.89C44.85 56.925 46.23 60.72 46.575 61.755C42.435 63.825 37.605 65.205 32.775 65.205C27.255 65.205 22.425 63.825 17.94 61.41C17.94 49.68 18.63 47.955 18.975 46.23C18.975 44.505 20.01 41.055 21.045 38.295C21.735 35.88 20.7 33.81 19.665 32.775C18.63 31.74 8.625 19.665 6.9 17.25C4.83 14.835 4.485 13.8 6.21 13.11C7.935 12.075 12.42 17.595 14.49 20.01C16.215 22.425 24.15 28.98 31.395 28.635C38.64 28.29 43.815 24.495 45.885 23.115C47.61 21.735 56.58 14.49 57.96 13.455C59.34 12.42 61.065 13.455 60.72 14.49C60.375 15.525 57.615 18.285 56.235 19.665Z"/>
    </symbol>

    <symbol id="phone">
        <path d="M13.7455 13.0923C13.4909 13.5935 12.9818 13.8441 12.4727 14.0947C11.8364 14.4706 11.3273 14.5959 10.6909 14.5959C9.8 14.5959 8.90909 14.22 8.14545 13.9694C7.50909 13.7188 7 13.4682 6.36364 13.2176C4.58182 12.09 2.54545 10.0853 1.52727 8.45643C1.14545 7.82996 0.890909 7.32878 0.636364 6.70231C0.381818 5.82525 0 5.07349 0 4.07113C0 3.44466 0.127273 2.81819 0.509091 2.19172C0.763636 1.69054 1.01818 1.18936 1.52727 0.938771C1.90909 0.938771 2.54545 0.813477 2.92727 0.813477C3.05455 0.813477 3.05455 0.813477 3.18182 0.813477C3.43636 0.938771 3.56364 1.31465 3.69091 1.56524C3.94545 2.19172 4.32727 2.69289 4.58182 3.31936C4.83636 3.56995 5.09091 3.82054 5.09091 4.07113C5.09091 4.6976 3.30909 5.57466 3.30909 6.07584C3.30909 6.32643 3.56364 6.70231 3.69091 6.9529C4.70909 8.70702 5.98182 9.95997 7.76364 10.9623C8.01818 11.0876 8.4 11.3382 8.65455 11.3382C9.16364 11.3382 10.0545 9.58408 10.6909 9.58408C10.9455 9.58408 11.2 9.83467 11.4545 10.0853C11.9636 10.4611 12.6 10.7117 13.1091 11.0876C13.3636 11.2129 13.7455 11.3382 13.8727 11.5888C13.8727 11.7141 13.8727 11.7141 13.8727 11.8394C14 12.09 13.8727 12.7164 13.7455 13.0923Z"/>
    </symbol>

    <symbol id="smile">
        <path d="M32 0C14.4314 0 0 14.4314 0 32C0 49.5686 14.4314 64 32 64C49.5686 64 64 49.5686 64 32C64 14.4314 49.5686 0 32 0ZM32 61.4902C15.6863 61.4902 2.5098 48.3137 2.5098 32C2.5098 15.6863 15.6863 2.5098 32 2.5098C48.3137 2.5098 61.4902 15.6863 61.4902 32C61.4902 48.3137 48.3137 61.4902 32 61.4902Z"/>
        <path d="M32 48.6275C21.0196 48.6275 14.4314 38.902 14.4314 38.902L12.2353 40.4706C21.0196 51.7647 32 51.451 32 51.451C32 51.451 42.9804 52.0785 51.7647 40.4706L49.5686 38.902C49.5686 38.902 42.9804 48.6275 32 48.6275Z"/>
        <path d="M21.3333 35.451C28.8627 32 30.1176 27.6078 30.1176 25.4118C30.1176 22.902 28.549 20.0784 25.7255 20.0784C22.5882 20.0784 21.3333 21.6471 21.3333 21.6471C21.3333 21.6471 20.0784 20.0784 16.9412 20.0784C14.1176 20.0784 12.549 23.2157 12.549 25.4118C12.549 27.6078 13.8039 32 21.3333 35.451ZM21.3333 24.7843C22.902 22.2745 27.2941 21.9608 27.6078 25.098C27.6078 29.4902 21.3333 32.6275 21.3333 32.6275C21.3333 32.6275 15.0588 29.4902 15.0588 25.098C15.3725 21.9608 19.7647 22.2745 21.3333 24.7843Z"/>
        <path d="M42.6667 35.451C50.1961 32 51.451 27.6078 51.451 25.7255C51.451 23.2157 49.8824 20.3922 47.0588 20.3922C43.9216 20.3922 42.6667 21.9608 42.6667 21.9608C42.6667 21.9608 41.4118 20.3922 38.2745 20.3922C35.451 20.3922 33.8824 23.5294 33.8824 25.7255C33.8824 27.6078 35.1373 32 42.6667 35.451ZM42.6667 24.7843C44.2353 22.2745 48.6274 21.9608 48.9412 25.098C48.9412 29.4902 42.6667 32.6274 42.6667 32.6274C42.6667 32.6274 36.3922 29.4902 36.3922 25.098C36.7059 21.9608 41.098 22.2745 42.6667 24.7843Z"/>
    </symbol>

    <symbol id="truck">
        <path d="M39.7406 24.3185V17.3936C39.7406 15.2296 38.875 14.364 38.875 14.364C38.875 14.364 36.711 11.5508 35.4126 9.81961C34.1142 8.08841 32.383 8.08841 32.383 8.08841H25.0254V7.0064C25.0254 5.49159 23.9434 4.40959 22.4285 4.40959H16.1529C14.6381 2.24558 12.0413 0.730774 9.22809 0.730774C4.46727 0.730774 0.788452 4.62599 0.788452 9.38681C0.788452 11.3344 1.43765 13.0656 2.51966 14.5804V24.1021C2.51966 25.6169 3.60166 26.6989 5.11647 26.6989H6.19848V26.9153C6.19848 29.5121 8.36249 31.6761 10.9593 31.6761C13.5561 31.6761 15.7201 29.5121 15.7201 26.9153C15.7201 26.6989 15.7201 26.6989 15.7201 26.6989H22.2121H22.4285C23.0777 26.6989 24.5926 26.6989 26.5402 26.6989V26.9153C26.5402 29.5121 28.7042 31.6761 31.301 31.6761C33.8978 31.6761 36.0618 29.5121 36.0618 26.9153C36.0618 26.6989 36.0618 26.6989 36.0618 26.6989C36.2782 26.6989 36.4946 26.6989 36.4946 26.6989C40.1734 26.9153 39.7406 24.3185 39.7406 24.3185ZM38.6586 16.7444C38.6586 16.7444 38.6586 16.9608 38.6586 17.3936H30.219C29.7862 17.3936 29.3534 16.9608 29.3534 16.528V13.0656C29.3534 12.6328 29.7862 12.2 30.219 12.2H35.8454C36.4946 12.8492 37.1438 13.7148 37.5766 14.364C38.6586 15.6624 38.6586 16.7444 38.6586 16.7444ZM9.22809 2.02918C13.3397 2.02918 16.8021 5.27519 16.8021 9.60321C16.8021 13.9312 13.3397 16.9608 9.22809 16.9608C5.11647 16.9608 1.87046 13.4984 1.87046 9.38681C1.87046 5.27519 5.11647 2.02918 9.22809 2.02918ZM10.7429 30.5941C8.79529 30.5941 7.28048 29.0793 7.28048 27.1317C7.28048 25.1841 8.79529 23.6693 10.7429 23.6693C12.6905 23.6693 14.2053 25.1841 14.2053 27.1317C14.2053 29.0793 12.6905 30.5941 10.7429 30.5941ZM15.0709 25.6169C14.4217 23.8857 12.6905 22.3709 10.7429 22.3709C8.79529 22.3709 7.06408 23.6693 6.41488 25.6169H4.90007C4.25087 25.6169 3.60166 24.9677 3.60166 24.3185V15.6624C5.11647 16.9608 7.06408 17.8264 9.22809 17.8264C13.9889 17.8264 17.6677 13.9312 17.6677 9.38681C17.6677 8.08841 17.2349 6.79 16.8021 5.708H22.4285C23.0777 5.708 23.7269 6.3572 23.7269 7.0064V24.3185C23.7269 24.9677 23.0777 25.6169 22.4285 25.6169H15.0709ZM31.0846 30.5941C29.137 30.5941 27.6222 29.0793 27.6222 27.1317C27.6222 25.1841 29.137 23.6693 31.0846 23.6693C33.0322 23.6693 34.547 25.1841 34.547 27.1317C34.547 29.0793 33.0322 30.5941 31.0846 30.5941ZM36.4946 25.8333H35.629C34.9798 23.8857 33.2486 22.5873 31.301 22.5873C29.137 22.5873 27.4058 23.8857 26.973 25.8333H24.809C25.2418 25.4005 25.4582 24.9677 25.4582 24.3185V8.95401C25.4582 8.95401 30.219 8.95401 32.1666 8.95401C34.1142 8.95401 34.9798 10.2524 34.9798 10.2524C34.9798 10.2524 34.7634 10.6852 35.1962 11.118H30.219C29.137 11.118 28.4878 11.9836 28.4878 12.8492V16.3116C28.4878 17.3936 29.3534 18.0428 30.219 18.0428H38.875C38.875 19.7741 38.875 22.3709 38.875 23.6693C38.6586 26.0497 36.4946 25.8333 36.4946 25.8333Z"/>
    </symbol>

    <symbol id="c">
        <path d="M0 8.56477C0 6.10363 0.8 4.13472 2.4 2.46114C4.1 0.88601 6.1 0 8.6 0C11.2 0 13.2 0.689119 14.8 2.1658L13.6 3.93782C13 3.34715 12.2 2.95337 11.3 2.65803C10.4 2.36269 9.6 2.1658 8.7 2.1658C6.8 2.1658 5.3 2.75648 4.1 3.93782C3 5.21762 2.5 6.6943 2.5 8.56477C2.5 10.4352 3.1 12.0104 4.2 13.2902C5.4 14.5699 6.9 15.1606 8.8 15.1606C9.7 15.1606 10.7 14.9637 11.6 14.5699C12.5 14.1762 13.3 13.6839 14 12.9948L15.3 14.6684C13.5 16.4404 11.3 17.3264 8.7 17.3264C6.1 17.3264 4 16.5389 2.4 14.8653C0.8 13.0933 0 11.0259 0 8.56477Z"/>
    </symbol>

    <symbol id="h">
        <path d="M0.299988 17.0311V0.295334H2.59999V7.58031H11.4V0.295334H13.8V16.9326H11.4V9.64767H2.59999V16.9326H0.299988V17.0311Z"/>
    </symbol>

    <symbol id="o">
        <path d="M0.600006 9.23834C0.600006 6.87564 1.40001 4.80828 3.10001 3.13471C4.70001 1.46113 6.80001 0.673569 9.30001 0.673569C11.8 0.673569 13.9 1.46113 15.5 3.13471C17.1 4.80828 18 6.7772 18 9.23834C18 11.6995 17.2 13.7668 15.5 15.4404C13.8 17.114 11.8 18 9.30001 18C6.80001 18 4.70001 17.114 3.10001 15.4404C1.40001 13.7668 0.600006 11.6995 0.600006 9.23834ZM3.00001 9.23834C3.00001 11.1088 3.60001 12.6839 4.80001 13.9637C6.00001 15.2435 7.50001 15.8342 9.30001 15.8342C11.1 15.8342 12.6 15.2435 13.8 13.9637C15 12.6839 15.6 11.1088 15.6 9.23834C15.6 7.46632 15 5.89119 13.8 4.70984C12.6 3.52849 11.1 2.83937 9.30001 2.83937C7.50001 2.83937 6.00001 3.43005 4.80001 4.70984C3.60001 5.89119 3.00001 7.36787 3.00001 9.23834Z"/>
    </symbol>

</svg>